<svg width="29" height="28" viewBox="0 0 29 28" fill="none" xmlns="http://www.w3.org/2000/svg">
<path d="M5.34188 22.4978C6.65938 21.55 8.05735 20.8005 9.5358 20.2492C11.0142 19.6976 12.6149 19.4219 14.3377 19.4219C16.0605 19.4219 17.6612 19.6976 19.1396 20.2492C20.618 20.8005 22.016 21.55 23.3335 22.4978C24.357 21.4387 25.1802 20.1878 25.803 18.7453C26.4261 17.3025 26.7377 15.7197 26.7377 13.9969C26.7377 10.561 25.53 7.63542 23.1146 5.22C20.6992 2.80458 17.7735 1.59687 14.3377 1.59687C10.9019 1.59687 7.97624 2.80458 5.56082 5.22C3.1454 7.63542 1.9377 10.561 1.9377 13.9969C1.9377 15.7197 2.24925 17.3025 2.87235 18.7453C3.49519 20.1878 4.31837 21.4387 5.34188 22.4978ZM14.3385 14.7719C13.0323 14.7719 11.9307 14.3235 11.0335 13.4269C10.1363 12.5302 9.68769 11.4288 9.68769 10.1227C9.68769 8.81652 10.136 7.71485 11.0327 6.81766C11.9294 5.92047 13.0308 5.47187 14.3369 5.47187C15.6431 5.47187 16.7447 5.92021 17.6419 6.81689C18.5391 7.71356 18.9877 8.81497 18.9877 10.1211C18.9877 11.4272 18.5394 12.5289 17.6427 13.4261C16.746 14.3233 15.6446 14.7719 14.3385 14.7719ZM14.3377 27.9469C12.3922 27.9469 10.5709 27.5847 8.87395 26.8603C7.17695 26.136 5.70045 25.1459 4.44443 23.8901C3.18867 22.6341 2.19861 21.1576 1.47425 19.4606C0.749878 17.7636 0.387695 15.9424 0.387695 13.9969C0.387695 12.0514 0.749878 10.2301 1.47425 8.53312C2.19861 6.83613 3.18867 5.35963 4.44443 4.10361C5.70045 2.84785 7.17695 1.85779 8.87395 1.13342C10.5709 0.409057 12.3922 0.046875 14.3377 0.046875C16.2832 0.046875 18.1045 0.409057 19.8014 1.13342C21.4984 1.85779 22.9749 2.84785 24.231 4.10361C25.4867 5.35963 26.4768 6.83613 27.2011 8.53312C27.9255 10.2301 28.2877 12.0514 28.2877 13.9969C28.2877 15.9424 27.9255 17.7636 27.2011 19.4606C26.4768 21.1576 25.4867 22.6341 24.231 23.8901C22.9749 25.1459 21.4984 26.136 19.8014 26.8603C18.1045 27.5847 16.2832 27.9469 14.3377 27.9469ZM14.3377 26.3969C15.7665 26.3969 17.1725 26.1469 18.5556 25.6471C19.9385 25.1474 21.1337 24.4634 22.1412 23.5949C21.1337 22.786 19.9682 22.1466 18.6448 21.6767C17.3213 21.2068 15.8856 20.9719 14.3377 20.9719C12.7898 20.9719 11.349 21.2019 10.0155 21.662C8.68226 22.1221 7.52183 22.7664 6.53422 23.5949C7.54172 24.4634 8.7369 25.1474 10.1198 25.6471C11.5029 26.1469 12.9089 26.3969 14.3377 26.3969ZM14.3377 13.2219C15.208 13.2219 15.9423 12.9229 16.5406 12.3248C17.1387 11.7265 17.4377 10.9922 17.4377 10.1219C17.4377 9.25155 17.1387 8.51724 16.5406 7.91894C15.9423 7.3209 15.208 7.02187 14.3377 7.02187C13.4674 7.02187 12.7331 7.3209 12.1348 7.91894C11.5367 8.51724 11.2377 9.25155 11.2377 10.1219C11.2377 10.9922 11.5367 11.7265 12.1348 12.3248C12.7331 12.9229 13.4674 13.2219 14.3377 13.2219Z" fill="white"/>
</svg>
