<svg width="38" height="38" viewBox="0 0 38 38" fill="none" xmlns="http://www.w3.org/2000/svg">
<mask id="mask0_1_555" style="mask-type:alpha" maskUnits="userSpaceOnUse" x="0" y="0" width="38" height="38">
<rect x="0.547363" y="0.398438" width="37.2" height="37.2" fill="#D9D9D9"/>
</mask>
<g mask="url(#mask0_1_555)">
<path d="M12.1708 25.9719H26.1208V24.4219H12.1708V25.9719ZM19.1458 21.0239L24.2728 15.8969L23.1758 14.7999L19.9208 18.037V10.4719H18.3708V18.037L15.1158 14.7999L14.0188 15.8969L19.1458 21.0239ZM19.1508 32.9469C17.2219 32.9469 15.4082 32.5808 13.71 31.8487C12.0119 31.1166 10.5348 30.123 9.2785 28.868C8.02223 27.6131 7.02777 26.1372 6.29514 24.4405C5.56225 22.744 5.1958 20.9311 5.1958 19.0019C5.1958 17.0729 5.56186 15.2593 6.29398 13.561C7.02609 11.863 8.01964 10.3858 9.27463 9.12957C10.5296 7.8733 12.0055 6.87885 13.7022 6.14621C15.3987 5.41332 17.2115 5.04688 19.1408 5.04688C21.0697 5.04688 22.8834 5.41293 24.5817 6.14505C26.2797 6.87717 27.7568 7.87072 29.0131 9.1257C30.2694 10.3807 31.2638 11.8565 31.9965 13.5533C32.7294 15.2498 33.0958 17.0626 33.0958 18.9918C33.0958 20.9208 32.7297 22.7344 31.9976 24.4327C31.2655 26.1307 30.272 27.6079 29.017 28.8642C27.762 30.1204 26.2861 31.1149 24.5894 31.8475C22.8929 32.5804 21.0801 32.9469 19.1508 32.9469ZM19.1458 31.3969C22.6075 31.3969 25.5396 30.1956 27.9421 27.7931C30.3446 25.3906 31.5458 22.4585 31.5458 18.9969C31.5458 15.5352 30.3446 12.6031 27.9421 10.2006C25.5396 7.79812 22.6075 6.59687 19.1458 6.59687C15.6841 6.59687 12.7521 7.79812 10.3496 10.2006C7.94705 12.6031 6.7458 15.5352 6.7458 18.9969C6.7458 22.4585 7.94705 25.3906 10.3496 27.7931C12.7521 30.1956 15.6841 31.3969 19.1458 31.3969Z" fill="white"/>
</g>
</svg>
