<svg width="74" height="68" viewBox="0 0 74 68" fill="none" xmlns="http://www.w3.org/2000/svg">
<path d="M44.7528 5.68628H29.223C23.742 5.68628 22.524 8.23441 21.8236 11.3771L19.3267 22.4754H54.6492L52.1522 11.3771C51.4519 8.23441 50.2339 5.68628 44.7528 5.68628Z" stroke="#216900" stroke-width="5.93165" stroke-linecap="round" stroke-linejoin="round"/>
<path d="M59.0338 40.5669C59.2774 42.9735 57.2067 45.0403 54.5576 45.0403H50.4163C48.0412 45.0403 47.7062 44.106 47.2799 42.9169L46.8231 41.6993C46.2141 40.0289 45.8183 38.8964 42.621 38.8964H31.3239C28.157 38.8964 27.6698 40.1705 27.1217 41.6993L26.665 42.9169C26.2387 44.0777 25.9037 45.0403 23.5286 45.0403H19.3873C16.7381 45.0403 14.6675 42.9735 14.9111 40.5669L16.1596 28.053C16.4641 24.9669 17.1035 22.447 22.8891 22.447H51.0557C56.8413 22.447 57.4808 24.9669 57.7853 28.053L59.0338 40.5669Z" stroke="#216900" stroke-width="5.93165" stroke-linecap="round" stroke-linejoin="round"/>
<path d="M19.3269 16.3035H17.104" stroke="#216900" stroke-width="5.93165" stroke-linecap="round" stroke-linejoin="round"/>
<path d="M56.8718 16.3035H54.6489" stroke="#216900" stroke-width="5.93165" stroke-linecap="round" stroke-linejoin="round"/>
<path d="M23.7417 30.6863H30.3495" stroke="#216900" stroke-width="5.93165" stroke-linecap="round" stroke-linejoin="round"/>
<path d="M43.626 30.6863H50.2338" stroke="#216900" stroke-width="5.93165" stroke-linecap="round" stroke-linejoin="round"/>
<path d="M36.9878 48.1548V50.986" stroke="#216900" stroke-width="5.93165" stroke-linecap="round" stroke-linejoin="round"/>
<path d="M36.9878 59.4797V62.311" stroke="#216900" stroke-width="5.93165" stroke-linecap="round" stroke-linejoin="round"/>
<path d="M9.58264 50.9861L6.5376 62.311" stroke="#216900" stroke-width="5.93165" stroke-linecap="round" stroke-linejoin="round"/>
<path d="M64.3936 50.9861L67.4386 62.311" stroke="#216900" stroke-width="5.93165" stroke-linecap="round" stroke-linejoin="round"/>
</svg>
