<svg width="63" height="79" viewBox="0 0 63 79" fill="none" xmlns="http://www.w3.org/2000/svg">
<path d="M55.802 58.7678C58.2713 60.521 59.5713 62.5098 59.5713 64.5343C59.5713 66.5588 58.2713 68.5476 55.802 70.3009C53.3326 72.0541 49.7809 73.51 45.5039 74.5223C41.2269 75.5345 36.3752 76.0674 31.4365 76.0674C26.4979 76.0674 21.6462 75.5345 17.3691 74.5223C13.0921 73.51 9.54045 72.0541 7.0711 70.3009C4.60176 68.5476 3.30176 66.5588 3.30176 64.5343C3.30176 62.5098 4.60176 60.521 7.0711 58.7678" stroke="#216900" stroke-width="5.71725" stroke-linecap="round"/>
<path d="M56.2604 31.8567C56.2604 52.4198 35.6196 65.8484 31.9804 68.0562C31.6388 68.2634 31.2325 68.2634 30.8909 68.0562C27.2517 65.8484 6.61084 52.4198 6.61084 31.8567C6.61084 14.557 18.6393 3.02393 31.4356 3.02393C44.6755 3.02393 56.2604 14.557 56.2604 31.8567Z" stroke="#216900" stroke-width="5.71725"/>
<path d="M41.8179 31.857C41.8179 39.1874 36.7836 44.3758 31.4367 44.3758C26.0898 44.3758 21.0554 39.1874 21.0554 31.857C21.0554 24.5265 26.0898 19.3381 31.4367 19.3381C36.7836 19.3381 41.8179 24.5265 41.8179 31.857Z" stroke="#216900" stroke-width="5.71725"/>
</svg>
