<svg width="67" height="64" viewBox="0 0 67 64" fill="none" xmlns="http://www.w3.org/2000/svg">
<path d="M49.9611 19.4401C49.7961 19.4141 49.6037 19.4141 49.4387 19.4401C45.6437 19.3101 42.6187 16.3721 42.6187 12.7321C42.6187 9.01405 45.7811 6.02405 49.7136 6.02405C53.6461 6.02405 56.8086 9.04005 56.8086 12.7321C56.7811 16.3721 53.7561 19.3101 49.9611 19.4401Z" stroke="#585858" stroke-width="2.4" stroke-linecap="round" stroke-linejoin="round"/>
<path d="M47.1284 38.3679C50.8959 38.9659 55.0484 38.3419 57.9634 36.4959C61.8409 34.0519 61.8409 30.0479 57.9634 27.6039C55.0209 25.7579 50.8134 25.1338 47.0459 25.7578" stroke="#585858" stroke-width="2.4" stroke-linecap="round" stroke-linejoin="round"/>
<path d="M16.8778 19.4401C17.0428 19.4141 17.2353 19.4141 17.4003 19.4401C21.1953 19.3101 24.2203 16.3721 24.2203 12.7321C24.2203 9.01405 21.0578 6.02405 17.1253 6.02405C13.1928 6.02405 10.0303 9.04005 10.0303 12.7321C10.0578 16.3721 13.0828 19.3101 16.8778 19.4401Z" stroke="#585858" stroke-width="2.4" stroke-linecap="round" stroke-linejoin="round"/>
<path d="M19.7109 38.3679C15.9434 38.9659 11.7909 38.3419 8.8759 36.4959C4.9984 34.0519 4.9984 30.0479 8.8759 27.6039C11.8184 25.7579 16.0259 25.1338 19.7934 25.7578" stroke="#585858" stroke-width="2.4" stroke-linecap="round" stroke-linejoin="round"/>
<path d="M33.4611 38.8618C33.2961 38.8358 33.1037 38.8358 32.9387 38.8618C29.1437 38.7318 26.1187 35.7938 26.1187 32.1538C26.1187 28.4358 29.2811 25.4458 33.2136 25.4458C37.1461 25.4458 40.3087 28.4618 40.3087 32.1538C40.2812 35.7938 37.2562 38.7578 33.4611 38.8618Z" stroke="#585858" stroke-width="2.4" stroke-linecap="round" stroke-linejoin="round"/>
<path d="M25.4584 47.0517C21.5809 49.4957 21.5809 53.4997 25.4584 55.9437C29.8584 58.7257 37.0634 58.7257 41.4634 55.9437C45.3409 53.4997 45.3409 49.4957 41.4634 47.0517C37.0909 44.2957 29.8584 44.2957 25.4584 47.0517Z" stroke="#585858" stroke-width="2.4" stroke-linecap="round" stroke-linejoin="round"/>
</svg>
